<?xml version="1.0" encoding="UTF-8" standalone="no"?>
<svg
   version="1.1"
   x="0px"
   y="0px"
   viewBox="0 0 128 128"
   xml:space="preserve"
   id="svg2"
   sodipodi:docname="app.svg"
   width="128"
   height="128"
   inkscape:version="1.4 (86a8ad7, 2024-10-11)"
   xmlns:inkscape="http://www.inkscape.org/namespaces/inkscape"
   xmlns:sodipodi="http://sodipodi.sourceforge.net/DTD/sodipodi-0.dtd"
   xmlns="http://www.w3.org/2000/svg"
   xmlns:svg="http://www.w3.org/2000/svg"><defs
     id="defs2" /><sodipodi:namedview
     id="namedview2"
     pagecolor="#505050"
     bordercolor="#eeeeee"
     borderopacity="1"
     inkscape:showpageshadow="0"
     inkscape:pageopacity="0"
     inkscape:pagecheckerboard="0"
     inkscape:deskcolor="#505050"
     inkscape:zoom="2.2825407"
     inkscape:cx="83.897737"
     inkscape:cy="73.821247"
     inkscape:window-width="1920"
     inkscape:window-height="1009"
     inkscape:window-x="303"
     inkscape:window-y="-8"
     inkscape:window-maximized="1"
     inkscape:current-layer="g1"
     showgrid="true"><inkscape:grid
       id="grid2"
       units="px"
       originx="0"
       originy="0"
       spacingx="8"
       spacingy="8"
       empcolor="#0099e5"
       empopacity="0.30196078"
       color="#0099e5"
       opacity="0.14901961"
       empspacing="4"
       enabled="false"
       visible="true" /></sodipodi:namedview><g
     id="g1"
     transform="translate(-5.0573926,-2.6973082)"
     style="fill:#ffffff"><path
       id="path2"
       style="fill:#17171d;stroke-width:4"
       d="m 128,64 c 0,48 -16,64 -64,64 C 16,128 0,112 0,64 0,16 16,0 64,0 c 48,0 64,16 64,64 z"
       sodipodi:nodetypes="sssss"
       transform="translate(5.0573926,2.6973082)" /><g
       id="g2"
       transform="translate(-168.36819,-342.38919)"
       style="fill:#ffc133;fill-opacity:1"><path
         d="m 267.16183,446.2135 c 20.4,-16.4 23.7,-46.3 7.4,-66.8 -16.4,-20.4 -46.3,-23.7 -66.8,-7.4 -11.7,9.4 -18.3,23.8 -17.8,38.8 0,0.2 0.1,0.4 0.1,0.6 0,1.1 0.1,2.1 0.2,3.1 0.2,1.4 0.4,2.7 0.6,4.1 0.5,2.2 1.2,4.3 2.5,7.2 1,2.3 2.3,4.5 3.7,6.6 l 0.5,0.7 c 0,0 0,0 0,0 l 0.6,0.8 c 0,0 0,0 0,0 0.3,0.4 0.5,0.6 0.8,0.9 0.1,0.2 0.3,0.3 0.4,0.5 0.2,0.2 0.4,0.5 0.7,0.7 0.2,0.2 0.3,0.4 0.5,0.5 l 0.3,0.3 c 0.3,0.3 0.7,0.6 1,0.9 1.8,1.6 3.9,3.1 6,4.2 2.2,1.2 4.5,2.1 6.9,2.7 2.4,0.6 4.9,0.9 7.4,1 2.5,0 5,-0.2 7.5,-0.8 2.4,-0.5 4.8,-1.4 7.1,-2.5 0,0 0.1,0 0.1,0 0.3,-0.1 0.6,-0.3 0.9,-0.5 0.2,-0.1 0.5,-0.2 0.7,-0.4 0.5,-0.3 1,-0.6 1.5,-0.9 v 0 l 1.3,-0.9 1.8,-1.5 c 0.1,-0.1 0.1,-0.1 0.2,-0.2 0,0 0,0 0.1,0 l 0.9,-1 v 0 l 0.7,-0.6 c 0,0 0.1,-0.1 0.2,-0.2 0.1,-0.1 0.2,-0.2 0.3,-0.3 0.2,-0.2 0.3,-0.4 0.5,-0.6 0.2,-0.3 0.4,-0.5 0.6,-0.8 l 1.3,-1.9 c 0,0 0,-0.1 0.1,-0.1 0,-0.1 0.1,-0.1 0.1,-0.2 l 0.9,-1.7 c 0,0 0,0 0,-0.1 0,0 0.1,-0.1 0.1,-0.2 0.1,-0.1 0.1,-0.3 0.2,-0.4 0.1,-0.2 0.2,-0.5 0.3,-0.7 0.1,-0.3 0.3,-0.6 0.4,-0.9 l 0.7,-2.2 0.5,-2.3 c 0,0 0,0 0,0 0,0 0,-0.2 0,-0.3 0,-0.1 0,-0.3 0,-0.4 0,-0.2 0.1,-0.5 0.1,-0.8 0,-0.4 0.1,-0.7 0.1,-1 v -1.9 c 0,-0.1 0,-0.1 0,-0.2 0,-0.2 0,-0.5 -0.1,-0.8 0,-0.2 -0.1,-0.5 -0.1,-0.7 0,-0.1 0,-0.3 0,-0.4 0,-0.4 -0.1,-0.8 -0.1,-1.1 0,0 0,-0.1 0,-0.1 l -0.3,-1.8 -0.5,-1.7 c 0,-0.1 -0.1,-0.3 -0.1,-0.4 0,-0.1 -0.1,-0.2 -0.1,-0.2 l -0.7,-1.9 c 0,-0.1 -0.1,-0.2 -0.1,-0.2 0,-0.1 -0.1,-0.2 -0.1,-0.3 0,0 0,-0.1 -0.1,-0.1 l -1.1,-2.1 c 0,0 0,0 0,-0.1 0,-0.1 -0.1,-0.1 -0.1,-0.2 l -1.3,-1.9 -0.1,-0.2 c -0.2,-0.2 -0.3,-0.4 -0.5,-0.6 -0.2,-0.3 -0.5,-0.6 -0.7,-0.9 l -1.2,-1.2 c -0.2,-0.2 -0.4,-0.3 -0.6,-0.6 -0.2,-0.2 -0.4,-0.3 -0.6,-0.5 -1.7,-1.3 -3.6,-2.4 -5.6,-3.1 -1.9,-0.7 -4,-1 -6.3,-1 h -0.8 c -0.1,0 -0.2,0 -0.4,0 -0.2,0 -0.2,0 -0.4,0 l -1.2,0.1 -1.9,0.4 -1.5,0.4 c -2,0.7 -3.9,1.6 -5.5,2.7 0,0 -0.1,0 -0.1,0.1 l -0.1,0.1 -1.3,1 -0.8,0.8 c 0,0 -0.1,0.1 -0.1,0.1 -0.1,0.1 -0.3,0.3 -0.5,0.5 -0.1,0.2 -0.2,0.3 -0.4,0.4 0,0 0,0 -0.1,0.1 -0.2,0.2 -0.4,0.5 -0.6,0.9 l -0.1,0.2 c -1,1.5 -1.7,3.2 -2.1,5 -0.4,1.8 -0.5,3.6 -0.3,5.3 0.2,1.7 0.7,3.3 1.4,4.9 l 0.6,1.1 0.1,0.1 c -0.9,-5.1 0.9,-10.5 5.2,-14 6.2,-5 15.3,-4 20.3,2.2 5,6.2 3.9,15.3 -2.2,20.3 -5.4,4.4 -13.2,5.7 -20.3,3.4 -2.3,-0.8 -4.3,-2.1 -6.1,-3.8 l -0.6,-0.6 c -0.2,-0.2 -0.4,-0.4 -0.6,-0.6 0,0 -0.1,-0.1 -0.1,-0.1 0,0 0,0 0,-0.1 l -0.6,-0.6 c -0.1,-0.1 -0.3,-0.3 -0.4,-0.5 l -0.6,-0.8 c -0.2,-0.3 -0.5,-0.6 -0.7,-1 0,-0.1 -0.1,-0.1 -0.1,-0.2 l -0.8,-1.4 c 0,0 0,-0.1 -0.1,-0.1 -1.2,-2.3 -2.1,-4.8 -2.5,-7.3 -0.5,-2.6 -0.4,-5.4 0.1,-8.2 0.5,-2.8 1.5,-5.5 3,-8 l 0.1,-0.1 c 0.3,-0.6 0.7,-1.2 1.2,-1.8 0.1,-0.1 0.2,-0.2 0.3,-0.3 0.3,-0.4 0.7,-0.9 1.2,-1.4 l 1,-1.1 c 0.1,-0.1 0.1,-0.1 0.2,-0.2 l 1.4,-1.2 c 0.2,-0.2 0.3,-0.3 0.6,-0.5 l 0.1,-0.1 c 2.3,-1.8 4.9,-3.2 7.8,-4.3 0,0 0.1,0 0.1,0 l 2,-0.7 c 0.1,0 0.1,0 0.2,-0.1 0.5,-0.1 1,-0.2 1.5,-0.4 l 1.1,-0.3 c 0.1,0 0.2,0 0.2,0 l 1.9,-0.2 c 0.3,0 0.5,-0.1 0.8,-0.1 0.1,0 0.1,0 0.2,0 h 1.1 c 3.4,-0.1 6.6,0.3 9.5,1.2 3.2,0.9 6.2,2.4 8.9,4.3 0,0 0.1,0 0.1,0.1 0.2,0.2 0.4,0.3 0.6,0.4 0.4,0.3 0.9,0.7 1.4,1.1 0,0 0,0 0.1,0 l 1.8,1.7 c 0.1,0 0.1,0.1 0.1,0.1 0.3,0.4 0.6,0.7 1,1.1 0.2,0.2 0.3,0.4 0.5,0.6 l 0.3,0.3 c 0.1,0.1 0.2,0.2 0.3,0.3 0,0 0.1,0.1 0.1,0.1 l 1.7,2.3 c 0,0 0,0 0,0 l 0.1,0.1 c 0.1,0.2 0.2,0.3 0.3,0.5 0,0 0,0.1 0.1,0.1 l 1.4,2.5 c 0.2,0.4 0.4,0.8 0.6,1.1 l 1.1,2.4 c 0.2,0.4 0.3,0.7 0.4,1 0,0.1 0.1,0.2 0.1,0.3 0,0 0,0 0,0.1 l 0.7,2.2 c 0,0.1 0.1,0.2 0.1,0.3 l 0.5,2.3 c 0.2,0.8 0.3,1.6 0.4,2.3 l 0.1,0.4 c 0,0 0,0.1 0,0.1 0,0.2 0.1,0.4 0.1,0.7 0.1,0.6 0.2,1.3 0.2,2 l 0.1,2.4 c 0,0.1 0,0.1 0,0.2 0,0.6 -0.1,1.2 -0.1,1.8 0,0.2 0,0.5 -0.1,0.7 0,0 0,0.1 0,0.1 0,0.1 0,0.2 0,0.3 0,0.3 0,0.7 -0.1,1.1 l -0.4,2.9 c 0,0.1 0,0.2 -0.1,0.2 l -0.8,3 c 0,0.1 0,0.1 0,0.2 -0.2,0.6 -0.4,1.2 -0.6,1.7 -0.1,0.2 -0.2,0.5 -0.3,0.7 0,0 0,0.1 0,0.1 0,0.1 -0.1,0.2 -0.1,0.3 -0.1,0.3 -0.2,0.6 -0.4,1 l -1.2,2.4 c -0.1,0.2 -0.2,0.3 -0.2,0.5 0,0 -0.1,0.1 -0.1,0.1 l -1.6,2.7 c 0,0 -0.1,0.1 -0.1,0.1 -0.4,0.5 -0.7,1 -1.1,1.5 -0.2,0.2 -0.3,0.4 -0.5,0.6 0,0 0,0 -0.1,0.1 -0.1,0.1 -0.2,0.2 -0.2,0.3 -0.2,0.2 -0.4,0.6 -0.7,0.9 v 0 l -2.3,2.5 c -0.2,0.2 -0.4,0.4 -0.5,0.5 0,0 -0.1,0.1 -0.1,0.1 0,0 0,0 0,0 l -1.9,1.7 c 0,0 0,0 -0.1,0.1 -0.1,0.1 -0.2,0.2 -0.3,0.2 0,0 0,0 -0.1,0 l -1.6,1.2 c 0,0 -0.1,0 -0.1,0.1 -0.7,0.5 -1.4,1 -2.1,1.5 0,0 -0.1,0 -0.1,0.1 -0.2,0.1 -0.5,0.3 -0.7,0.4 -0.5,0.3 -1,0.6 -1.6,0.9 -1.6,0.9 -3.2,1.6 -4.8,2.3 10.3,0 20.4,-3.5 28.8,-10.3 z"
         id="path2-0"
         style="fill:#ffc133;fill-opacity:1" /></g></g></svg>
